<svg width="52" height="52" viewBox="0 0 52 52" fill="none" xmlns="http://www.w3.org/2000/svg">
<g id="sims" clip-path="url(#clip0_9_38)">
<path id="Vector" d="M13.5153 23.0855C13.2617 22.7669 12.9431 22.519 12.5715 22.3538C12.2235 22.1827 11.8342 22.0883 11.4449 22.0824C11.2444 22.0824 11.0497 22.0942 10.8551 22.1296C10.6722 22.1591 10.4952 22.224 10.336 22.3184C10.1826 22.4128 10.0529 22.5308 9.94668 22.6784C9.83461 22.8554 9.78152 23.0619 9.79332 23.2684C9.78742 23.4395 9.82871 23.6166 9.91719 23.7641C10.0116 23.9057 10.1354 24.0237 10.277 24.1122C10.4658 24.2184 10.6604 24.3128 10.8669 24.3836C11.0851 24.4662 11.3328 24.5488 11.6101 24.6374C12.0053 24.7672 12.4123 24.9147 12.8429 25.074C13.2617 25.2274 13.6628 25.4398 14.0226 25.7054C14.3706 25.9709 14.6655 26.3072 14.8897 26.6849C15.1315 27.1274 15.2554 27.6289 15.2377 28.1364C15.2554 28.7383 15.1256 29.3283 14.8661 29.8712C14.6301 30.3314 14.288 30.7386 13.8751 31.0513C13.4445 31.3758 12.9549 31.6177 12.43 31.7594C11.8932 31.9128 11.3328 31.9895 10.7725 31.9895C9.94668 31.9895 9.12678 31.842 8.35407 31.5528C7.62265 31.2932 6.95612 30.8684 6.41345 30.3137L8.2538 28.4373C8.56052 28.8091 8.94393 29.11 9.38042 29.3165C9.81102 29.5407 10.2888 29.6646 10.7725 29.6705C10.973 29.6705 11.1677 29.6469 11.3623 29.6056C11.5452 29.5702 11.7221 29.4935 11.8814 29.3932C12.0289 29.2929 12.1468 29.1572 12.2294 28.9979C12.3238 28.815 12.371 28.6143 12.3651 28.4078C12.3769 28.1954 12.3179 27.9889 12.1999 27.8178C12.0702 27.6466 11.9109 27.505 11.728 27.3988C11.4921 27.2513 11.2385 27.1392 10.973 27.0507L9.94668 26.7144C9.57507 26.5963 9.20936 26.4547 8.85545 26.2895C8.50154 26.1302 8.18302 25.9178 7.89989 25.6523C7.61676 25.3867 7.38671 25.0681 7.22745 24.7141C7.0446 24.2892 6.96202 23.8349 6.97381 23.3746C6.96792 22.8023 7.10358 22.2299 7.38081 21.7284C7.64035 21.2799 7.99426 20.8905 8.41896 20.5955C8.85545 20.3004 9.33913 20.088 9.84641 19.9582C10.3773 19.8225 10.9258 19.7576 11.4744 19.7576C12.1645 19.7576 12.8429 19.8815 13.4917 20.1175C14.1464 20.3535 14.7481 20.7135 15.2613 21.1855L13.5153 23.0855Z" fill="#002E73"/>
<path id="Vector_2" d="M17.0839 31.7004V20.0586H19.9093V31.7004H17.0839Z" fill="#002E73"/>
<path id="Vector_3" d="M32.8508 31.7004L32.9156 23.4396H32.8685L29.8425 31.7004H27.8842L24.9349 23.4396H24.8877L24.9526 31.7004H22.3101V20.0586H26.3093L28.9577 27.5228H29.0226L31.559 20.0586H35.6231V31.7004H32.8508Z" fill="#002E73"/>
<path id="Vector_4" d="M44.1582 23.0855C43.9046 22.7669 43.5861 22.519 43.2145 22.3538C42.8665 22.1827 42.4772 22.0883 42.0879 22.0824C41.8873 22.0824 41.6927 22.0942 41.498 22.1296C41.3151 22.1591 41.1382 22.224 40.9789 22.3184C40.8256 22.4128 40.6958 22.5308 40.5896 22.6784C40.4776 22.8554 40.4245 23.0619 40.4363 23.2684C40.4304 23.4395 40.4717 23.6166 40.5601 23.7641C40.6545 23.9057 40.7784 24.0237 40.9199 24.1122C41.1087 24.2184 41.3033 24.3128 41.5098 24.3836C41.728 24.4662 41.9758 24.5488 42.253 24.6374C42.6423 24.7672 43.0552 24.9147 43.4858 25.074C43.9105 25.2274 44.3057 25.4398 44.6655 25.7054C45.0194 25.9709 45.3144 26.3013 45.5385 26.6849C45.7803 27.1274 45.9042 27.6289 45.8865 28.1364C45.9042 28.7383 45.7744 29.3283 45.5149 29.8712C45.279 30.3373 44.9369 30.7386 44.5181 31.0513C44.0875 31.3758 43.5979 31.6177 43.0729 31.7594C42.5302 31.9128 41.9699 31.9895 41.4095 31.9895C40.5837 31.9895 39.7697 31.842 38.997 31.5528C38.2656 31.2932 37.5991 30.8684 37.0564 30.3137L38.8967 28.4373C39.2035 28.8091 39.5869 29.11 40.0234 29.3165C40.4481 29.5407 40.9258 29.6646 41.4095 29.6705C41.6101 29.6705 41.8047 29.6469 41.9994 29.6056C42.1822 29.5702 42.3592 29.4994 42.5126 29.3932C42.66 29.2929 42.7839 29.1572 42.8665 28.9979C42.9608 28.815 43.008 28.6143 43.0021 28.4078C43.0139 28.1954 42.9549 27.9889 42.837 27.8178C42.7072 27.6466 42.5479 27.505 42.3651 27.3988C42.1291 27.2513 41.8755 27.1392 41.6101 27.0507L40.5837 26.7144C40.2121 26.5963 39.8464 26.4547 39.4925 26.2895C39.1386 26.1302 38.8201 25.9178 38.5369 25.6523C38.2479 25.3926 38.0179 25.074 37.8645 24.7141C37.6816 24.2892 37.5932 23.8349 37.605 23.3746C37.605 22.7964 37.7465 22.2299 38.0238 21.7284C38.2774 21.274 38.6372 20.8905 39.0619 20.5955C39.5043 20.2945 39.9998 20.0821 40.5188 19.9582C41.0497 19.8225 41.5983 19.7576 42.1468 19.7576C42.8311 19.7576 43.5153 19.8815 44.1582 20.1175C44.8248 20.3476 45.4382 20.7076 45.9632 21.1855L44.1582 23.0855Z" fill="#002E73"/>
<path id="Vector_5" d="M51.7261 51.5205H0.479492V0.273926H51.7261V51.5205ZM1.671 50.3404H50.5464V1.45404H1.6592L1.671 50.3404Z" fill="#002E73"/>
</g>
<defs>
<clipPath id="clip0_9_38">
<rect width="51.2466" height="51.2466" fill="white" transform="translate(0.479492 0.273926)"/>
</clipPath>
</defs>
</svg>
